{"title":"Dead_End_(1937)_William_Wyler_mkv_tsantilas","uid":11631605,"size":1321400569,"categoryP":"video","categoryS":"movies","magnet":"?xt=urn:btih:57fb010f4212fe9593f8cec060bd359ccb85f13d&amp;dn=Dead_End_%281937%29_William_Wyler_mkv_tsantilas&amp;tr=udp%3A%2F%2Ftracker.openbittorrent.com%3A80&amp;tr=udp%3A%2F%2Fopen.demonii.com%3A1337&amp;tr=udp%3A%2F%2Ftracker.coppersurfer.tk%3A6969&amp;tr=udp%3A%2F%2Fexodus.desync.com%3A6969","seeders":0,"leechers":1,"uploader":"tsantilas","files":-1,"time":1417680331,"description":"Dead End is a 1937 crime drama film. It is an adaptation of the Sidney Kingsley 1935 Broadway play of the same name. The play was adapted by Lillian Hellman. It stars Humphrey Bogart, Joel McCrea, and Sylvia Sidney. It is notable as being the first film appearance of the Dead End Kids. \n\nPlot: The Dead End Kids are introduced in their intricate East Side slum, overlooked by the apartments of the rich. Their antics, some funny, some vicious, alternate with subplots: unemployed architect Dave (Joel McCrea) is torn between Drina (Silvia Sidney), sweet but equally poor, and Kay (Wendy Barrie), a rich man's mistress; gangster Baby Face Martin (Humphrey Bogart) returns to his old neighborhood and finds that nobody is glad to see him. Then violent crime, both juvenile and adult, impacts the neighborhood and its people.\n\nGeneral\nUnique ID                                : 336772892301818241214815815091644556364 (0xFD5C198ACD40D4C104BD8F3DA018644C)\nComplete name                            : Dead End (1937).mkv\nFormat                                   : Matroska\nFormat version                           : Version 2\nFile size                                : 1.23 GiB\nDuration                                 : 1h 28mn\nOverall bit rate                         : 1 997 Kbps\nWriting application                      : HandBrake 0.9.9\nWriting library                          : libmkv 0.6.5\n\nVideo\nID                                       : 1\nFormat                                   : AVC\nFormat/Info                              : Advanced Video Codec\nFormat profile                           : &lt;a class=&quot;__cf_email__&quot; href=&quot;/cdn-cgi/l/email-protection&quot; data-cfemail=&quot;82caebe5eac2ceb6acb3&quot;&gt;[email&amp;#160;protected]&lt;/a&gt;&lt;script cf-hash='f9e31' type=&quot;text/javascript&quot;&gt;\n/* &lt;![CDATA[ */!function(){try{var t=&quot;currentScript&quot;in document?document.currentScript:function(){for(var t=document.getElementsByTagName(&quot;script&quot;),e=t.length;e--;)if(t[e].getAttribute(&quot;cf-hash&quot;))return t[e]}();if(t&amp;&amp;t.previousSibling){var e,r,n,i,c=t.previousSibling,a=c.getAttribute(&quot;data-cfemail&quot;);if(a){for(e=&quot;&quot;,r=parseInt(a.substr(0,2),16),n=2;a.length-n;n+=2)i=parseInt(a.substr(n,2),16)^r,e+=String.fromCharCode(i);e=document.createTextNode(e),c.parentNode.replaceChild(e,c)}}}catch(u){}}();/* ]]&gt; */&lt;/script&gt;\nFormat settings, CABAC                   : Yes\nFormat settings, ReFrames                : 4 frames\nCodec ID                                 : V_MPEG4/ISO/AVC\nDuration                                 : 1h 28mn\nBit rate                                 : 1 800 Kbps\nWidth                                    : 704 pixels\nHeight                                   : 528 pixels\nDisplay aspect ratio                     : 4:3\nFrame rate mode                          : Constant\nFrame rate                               : 25.000 fps\nColor space                              : YUV\nChroma subsampling                       : 4:2:0\nBit depth                                : 8 bits\nScan type                                : Progressive\nBits/(Pixel*Frame)                       : 0.194\nStream size                              : 1.09 GiB (88%)\nWriting library                          : x264 core 130 r2273 b3065e6\nEncoding settings                        : cabac=1 / ref=3 / deblock=1:0:0 / analyse=0x3:0x113 / me=hex / subme=7 / psy=1 / psy_rd=1.00:0.00 / mixed_ref=1 / me_range=16 / chroma_me=1 / trellis=1 / 8x8dct=1 / cqm=0 / deadzone=21,11 / fast_pskip=1 / chroma_qp_offset=-2 / threads=3 / lookahead_threads=1 / sliced_threads=0 / nr=0 / decimate=1 / interlaced=0 / bluray_compat=0 / constrained_intra=0 / bframes=3 / b_pyramid=2 / b_adapt=1 / b_bias=0 / direct=1 / weightb=1 / open_gop=0 / weightp=2 / keyint=250 / keyint_min=25 / scenecut=40 / intra_refresh=0 / rc_lookahead=40 / rc=2pass / mbtree=1 / bitrate=1800 / ratetol=1.0 / qcomp=0.60 / qpmin=0 / qpmax=69 / qpstep=4 / cplxblur=20.0 / qblur=0.5 / vbv_maxrate=62500 / vbv_bufsize=78125 / nal_hrd=none / ip_ratio=1.40 / aq=1:1.00\nLanguage                                 : English\nDefault                                  : Yes\nForced                                   : No\nColor primaries                          : BT.601 PAL\nTransfer characteristics                 : BT.709\nMatrix coefficients                      : BT.601\n\nAudio\nID                                       : 2\nFormat                                   : AC-3\nFormat/Info                              : Audio Coding 3\nMode extension                           : CM (complete main)\nFormat settings, Endianness              : Big\nCodec ID                                 : A_AC3\nDuration                                 : 1h 28mn\nBit rate mode                            : Constant\nBit rate                                 : 192 Kbps\nChannel(s)                               : 2 channels\nChannel positions                        : Front: L R\nSampling rate                            : 48.0 KHz\nBit depth                                : 16 bits\nCompression mode                         : Lossy\nStream size                              : 121 MiB (10%)\nLanguage                                 : English\nDefault                                  : Yes\nForced                                   : No\n\nMenu\n00:00:00.000                             : Chapter 1\n00:03:08.160                             : Chapter 2\n00:11:22.040                             : Chapter 3\n00:17:50.360                             : Chapter 4\n00:23:38.680                             : Chapter 5\n00:28:37.080                             : Chapter 6\n00:29:53.760                             : Chapter 7\n00:37:23.360                             : Chapter 8\n00:45:18.120                             : Chapter 9\n00:54:10.440                             : Chapter 10\n00:56:02.600                             : Chapter 11\n00:58:33.960                             : Chapter 12\n01:07:05.120                             : Chapter 13\n01:11:49.160                             : Chapter 14\n01:17:04.880                             : Chapter 15\n01:24:48.800                             : Chapter 16\n\nSource: DVD Fullscreen (4:3)","torrent":{"xt":"urn:btih:57fb010f4212fe9593f8cec060bd359ccb85f13d","amp;dn":"Dead_End_%281937%29_William_Wyler_mkv_tsantilas","amp;tr":["udp%3A%2F%2Ftracker.openbittorrent.com%3A80","udp%3A%2F%2Fopen.demonii.com%3A1337","udp%3A%2F%2Ftracker.coppersurfer.tk%3A6969","udp%3A%2F%2Fexodus.desync.com%3A6969"],"infoHash":"57fb010f4212fe9593f8cec060bd359ccb85f13d","infoHashBuffer":{"type":"Buffer","data":[87,251,1,15,66,18,254,149,147,248,206,192,96,189,53,156,203,133,241,61]},"announce":[],"urlList":[]}}